<svg width="221" height="217" viewBox="0 0 221 217" fill="none" xmlns="http://www.w3.org/2000/svg">
<rect x="0.623047" y="0.5" width="219" height="216" rx="7.5" stroke="black" stroke-opacity="0.8"/>
<g clip-path="url(#clip0_155_38865)">
<path d="M12.3198 118.937V110.671H17.9848V112.07H13.8624V113.902H17.6982V115.295H13.8624V117.544H18.1307V118.937H12.3198Z" fill="black"/>
<path d="M24.473 118.937H23.0086V115.881C23.0086 115.235 22.9773 114.816 22.9148 114.627C22.8522 114.437 22.7506 114.289 22.6099 114.184C22.4692 114.079 22.2998 114.026 22.1018 114.026C21.8481 114.026 21.6206 114.101 21.419 114.252C21.2175 114.402 21.0794 114.601 21.0047 114.849C20.93 115.097 20.8927 115.556 20.8927 116.225V118.937H19.4282V112.949H20.7884V113.829C21.2714 113.152 21.8794 112.814 22.6125 112.814C22.9356 112.814 23.2309 112.877 23.4985 113.003C23.766 113.129 23.9684 113.289 24.1056 113.485C24.2428 113.68 24.3384 113.902 24.3922 114.15C24.4461 114.398 24.473 114.754 24.473 115.216V118.937Z" fill="black"/>
<path d="M25.8286 119.332L27.5015 119.552C27.5293 119.762 27.5936 119.907 27.6943 119.986C27.8333 120.098 28.0522 120.155 28.351 120.155C28.7331 120.155 29.0198 120.093 29.2109 119.969C29.3394 119.886 29.4367 119.753 29.5027 119.568C29.5479 119.437 29.5705 119.194 29.5705 118.841V117.967C29.1327 118.614 28.5803 118.937 27.9132 118.937C27.1697 118.937 26.5808 118.597 26.1465 117.917C25.806 117.379 25.6357 116.71 25.6357 115.909C25.6357 114.906 25.859 114.139 26.3054 113.609C26.7519 113.079 27.3069 112.814 27.9705 112.814C28.655 112.814 29.2196 113.139 29.6643 113.789V112.949H31.0349V118.322C31.0349 119.029 30.9811 119.557 30.8734 119.907C30.7657 120.256 30.6145 120.531 30.42 120.73C30.2254 120.929 29.9657 121.085 29.6408 121.198C29.316 121.311 28.9051 121.367 28.4083 121.367C27.4702 121.367 26.8049 121.193 26.4123 120.846C26.0197 120.498 25.8234 120.057 25.8234 119.523C25.8234 119.471 25.8251 119.407 25.8286 119.332ZM27.1367 115.819C27.1367 116.454 27.2505 116.92 27.478 117.215C27.7056 117.51 27.9862 117.657 28.3197 117.657C28.6776 117.657 28.9798 117.506 29.2265 117.203C29.4732 116.901 29.5965 116.452 29.5965 115.859C29.5965 115.238 29.4784 114.778 29.2421 114.477C29.0059 114.177 28.7071 114.026 28.3458 114.026C27.9948 114.026 27.7056 114.174 27.478 114.469C27.2505 114.764 27.1367 115.214 27.1367 115.819Z" fill="black"/>
<path d="M32.4888 118.937V110.671H33.9532V118.937H32.4888Z" fill="black"/>
<path d="M35.4487 112.137V110.671H36.9132V112.137H35.4487ZM35.4487 118.937V112.949H36.9132V118.937H35.4487Z" fill="black"/>
<path d="M37.8931 117.229L39.3627 116.986C39.4253 117.294 39.5521 117.528 39.7432 117.688C39.9343 117.848 40.2018 117.928 40.5458 117.928C40.9245 117.928 41.2094 117.853 41.4005 117.702C41.529 117.597 41.5933 117.456 41.5933 117.279C41.5933 117.159 41.5585 117.06 41.489 116.981C41.4161 116.905 41.2528 116.836 40.9992 116.772C39.8179 116.49 39.0691 116.233 38.753 116C38.3152 115.676 38.0963 115.227 38.0963 114.652C38.0963 114.133 38.2857 113.697 38.6644 113.344C39.0431 112.991 39.6303 112.814 40.4259 112.814C41.1833 112.814 41.7461 112.947 42.1144 113.214C42.4827 113.481 42.7363 113.876 42.8753 114.398L41.4943 114.675C41.4352 114.442 41.3231 114.263 41.1581 114.139C40.9931 114.015 40.7577 113.953 40.4519 113.953C40.0663 113.953 39.7901 114.011 39.6233 114.128C39.5121 114.21 39.4565 114.318 39.4565 114.449C39.4565 114.562 39.5052 114.658 39.6025 114.737C39.7345 114.842 40.1905 114.99 40.9705 115.182C41.7505 115.374 42.2951 115.609 42.6043 115.887C42.9101 116.169 43.0629 116.561 43.0629 117.065C43.0629 117.614 42.851 118.086 42.4271 118.48C42.0033 118.875 41.3761 119.072 40.5458 119.072C39.7918 119.072 39.1951 118.907 38.7556 118.576C38.3161 118.245 38.0286 117.796 37.8931 117.229Z" fill="black"/>
<path d="M45.8097 110.671V113.71C46.2822 113.113 46.8468 112.814 47.5034 112.814C47.8404 112.814 48.1444 112.882 48.4154 113.017C48.6864 113.152 48.8906 113.325 49.0278 113.536C49.165 113.746 49.2588 113.979 49.3092 114.235C49.3596 114.49 49.3848 114.887 49.3848 115.424V118.937H47.9204V115.774C47.9203 115.146 47.8926 114.748 47.837 114.579C47.7814 114.41 47.6832 114.275 47.5425 114.176C47.4018 114.076 47.2255 114.026 47.0135 114.026C46.7703 114.026 46.5532 114.09 46.3621 114.218C46.171 114.346 46.0312 114.538 45.9426 114.796C45.854 115.053 45.8097 115.434 45.8097 115.938V118.937H44.3452V110.671H45.8097Z" fill="black"/>
<path d="M53.1943 112.949H54.0073V112.498C54.0073 111.995 54.0569 111.619 54.1559 111.371C54.2549 111.123 54.4373 110.92 54.7031 110.765C54.9689 110.609 55.305 110.531 55.7115 110.531C56.1284 110.531 56.5367 110.598 56.9362 110.733L56.7382 111.839C56.5054 111.778 56.2813 111.748 56.0659 111.748C55.854 111.748 55.702 111.802 55.6099 111.909C55.5178 112.016 55.4718 112.222 55.4718 112.526V112.949H56.5662V114.195H55.4718V118.937H54.0073V114.195H53.1943V112.949Z" fill="black"/>
<path d="M57.061 115.859C57.061 115.332 57.1809 114.823 57.4206 114.331C57.6604 113.838 58 113.462 58.4395 113.203C58.879 112.944 59.3698 112.814 59.9118 112.814C60.7491 112.814 61.4353 113.108 61.9703 113.696C62.5054 114.285 62.7729 115.028 62.7729 115.926C62.7729 116.832 62.5028 117.583 61.9625 118.179C61.4222 118.774 60.7421 119.072 59.9222 119.072C59.4149 119.072 58.9311 118.948 58.4708 118.7C58.0104 118.452 57.6604 118.088 57.4206 117.609C57.1809 117.13 57.061 116.546 57.061 115.859ZM58.562 115.943C58.562 116.537 58.6923 116.992 58.9528 117.308C59.2134 117.623 59.5348 117.781 59.917 117.781C60.2992 117.781 60.6197 117.623 60.8785 117.308C61.1373 116.992 61.2668 116.533 61.2668 115.932C61.2668 115.346 61.1373 114.894 60.8785 114.579C60.6197 114.263 60.2992 114.105 59.917 114.105C59.5348 114.105 59.2134 114.263 58.9528 114.579C58.6923 114.894 58.562 115.349 58.562 115.943Z" fill="black"/>
<path d="M65.3268 118.937H63.8623V112.949H65.2225V113.801C65.4553 113.398 65.6646 113.133 65.8505 113.006C66.0364 112.878 66.2475 112.814 66.4837 112.814C66.8173 112.814 67.1386 112.914 67.4479 113.113L66.9945 114.494C66.7478 114.321 66.5185 114.235 66.3065 114.235C66.1015 114.235 65.9278 114.296 65.7854 114.418C65.6429 114.54 65.5309 114.761 65.4492 115.081C65.3676 115.4 65.3268 116.069 65.3268 117.088V118.937Z" fill="black"/>
<path d="M70.9966 118.937V110.671H72.5392V118.937H70.9966Z" fill="black"/>
<path d="M79.0277 118.937H77.5633V115.881C77.5633 115.235 77.532 114.816 77.4695 114.627C77.4069 114.437 77.3053 114.289 77.1646 114.184C77.0239 114.079 76.8545 114.026 76.6564 114.026C76.4028 114.026 76.1752 114.101 75.9737 114.252C75.7722 114.402 75.6341 114.601 75.5594 114.849C75.4847 115.097 75.4474 115.556 75.4474 116.225V118.937H73.9829V112.949H75.3431V113.829C75.8261 113.152 76.4341 112.814 77.1672 112.814C77.4903 112.814 77.7856 112.877 78.0531 113.003C78.3207 113.129 78.523 113.289 78.6603 113.485C78.7975 113.68 78.8931 113.902 78.9469 114.15C79.0008 114.398 79.0277 114.754 79.0277 115.216V118.937Z" fill="black"/>
<path d="M83.0566 112.949V114.212H82.056V116.625C82.056 117.114 82.0656 117.399 82.0847 117.48C82.1038 117.56 82.1472 117.627 82.215 117.68C82.2827 117.732 82.3652 117.759 82.4625 117.759C82.598 117.759 82.7943 117.708 83.0514 117.606L83.1765 118.836C82.836 118.993 82.4504 119.072 82.0195 119.072C81.7555 119.072 81.5175 119.024 81.3056 118.929C81.0936 118.833 80.9381 118.709 80.8391 118.556C80.7401 118.404 80.6715 118.198 80.6333 117.939C80.602 117.755 80.5864 117.383 80.5864 116.823V114.212H79.9141V112.949H80.5864V111.76L82.056 110.835V112.949H83.0566Z" fill="black"/>
<path d="M87.2882 117.031L88.7475 117.296C88.5598 117.875 88.2637 118.316 87.8589 118.618C87.4541 118.921 86.9477 119.072 86.3397 119.072C85.3773 119.072 84.6651 118.732 84.203 118.052C83.8382 117.507 83.6558 116.819 83.6558 115.988C83.6558 114.996 83.8955 114.219 84.375 113.657C84.8544 113.095 85.4607 112.814 86.1938 112.814C87.0172 112.814 87.6669 113.108 88.1429 113.696C88.6189 114.285 88.8465 115.186 88.8256 116.4H85.1567C85.1671 116.87 85.2852 117.235 85.5111 117.496C85.7369 117.758 86.0183 117.888 86.3554 117.888C86.5847 117.888 86.7775 117.821 86.9338 117.685C87.0902 117.55 87.2083 117.332 87.2882 117.031ZM87.3716 115.43C87.3612 114.972 87.2517 114.623 87.0433 114.384C86.8348 114.146 86.5812 114.026 86.2824 114.026C85.9627 114.026 85.6987 114.152 85.4902 114.404C85.2818 114.656 85.1793 114.998 85.1828 115.43H87.3716Z" fill="black"/>
<path d="M91.4264 118.937H89.9619V112.949H91.3221V113.801C91.5549 113.398 91.7642 113.133 91.9501 113.006C92.136 112.878 92.3471 112.814 92.5833 112.814C92.9169 112.814 93.2382 112.914 93.5475 113.113L93.0941 114.494C92.8474 114.321 92.6181 114.235 92.4061 114.235C92.2011 114.235 92.0274 114.296 91.885 114.418C91.7425 114.54 91.6305 114.761 91.5488 115.081C91.4672 115.4 91.4264 116.069 91.4264 117.088V118.937Z" fill="black"/>
<path d="M99.2069 118.937H97.7425V115.881C97.7425 115.235 97.7112 114.816 97.6486 114.627C97.5861 114.437 97.4845 114.289 97.3438 114.184C97.2031 114.079 97.0337 114.026 96.8356 114.026C96.582 114.026 96.3544 114.101 96.1529 114.252C95.9514 114.402 95.8133 114.601 95.7386 114.849C95.6639 115.097 95.6266 115.556 95.6266 116.225V118.937H94.1621V112.949H95.5223V113.829C96.0053 113.152 96.6133 112.814 97.3464 112.814C97.6695 112.814 97.9648 112.877 98.2323 113.003C98.4999 113.129 98.7023 113.289 98.8395 113.485C98.9767 113.68 99.0723 113.902 99.1261 114.15C99.18 114.398 99.2069 114.754 99.2069 115.216V118.937Z" fill="black"/>
<path d="M101.792 114.776L100.463 114.517C100.613 113.938 100.87 113.509 101.234 113.231C101.599 112.953 102.141 112.814 102.86 112.814C103.514 112.814 104 112.898 104.32 113.065C104.639 113.232 104.864 113.445 104.995 113.702C105.125 113.959 105.19 114.432 105.19 115.12L105.174 116.969C105.174 117.496 105.198 117.884 105.245 118.134C105.292 118.384 105.379 118.651 105.508 118.937H104.059C104.021 118.832 103.974 118.676 103.918 118.469C103.894 118.375 103.877 118.313 103.866 118.283C103.616 118.546 103.349 118.743 103.064 118.875C102.779 119.007 102.475 119.072 102.152 119.072C101.582 119.072 101.133 118.905 100.805 118.571C100.476 118.236 100.312 117.813 100.312 117.302C100.312 116.964 100.387 116.662 100.536 116.397C100.686 116.132 100.895 115.929 101.164 115.788C101.433 115.647 101.822 115.524 102.329 115.419C103.013 115.28 103.488 115.15 103.752 115.03V114.872C103.752 114.567 103.682 114.35 103.543 114.221C103.404 114.091 103.142 114.026 102.756 114.026C102.496 114.026 102.292 114.082 102.146 114.193C102.001 114.303 101.882 114.498 101.792 114.776ZM103.752 116.062C103.564 116.129 103.267 116.21 102.86 116.304C102.454 116.398 102.188 116.49 102.063 116.58C101.872 116.727 101.776 116.913 101.776 117.138C101.776 117.36 101.853 117.552 102.006 117.714C102.159 117.875 102.353 117.956 102.589 117.956C102.854 117.956 103.105 117.862 103.345 117.674C103.522 117.531 103.639 117.356 103.694 117.15C103.733 117.014 103.752 116.757 103.752 116.377V116.062Z" fill="black"/>
<path d="M109.177 112.949V114.212H108.177V116.625C108.177 117.114 108.186 117.399 108.205 117.48C108.224 117.56 108.268 117.627 108.336 117.68C108.403 117.732 108.486 117.759 108.583 117.759C108.719 117.759 108.915 117.708 109.172 117.606L109.297 118.836C108.957 118.993 108.571 119.072 108.14 119.072C107.876 119.072 107.638 119.024 107.426 118.929C107.214 118.833 107.059 118.709 106.96 118.556C106.861 118.404 106.792 118.198 106.754 117.939C106.723 117.755 106.707 117.383 106.707 116.823V114.212H106.035V112.949H106.707V111.76L108.177 110.835V112.949H109.177Z" fill="black"/>
<path d="M110.204 112.137V110.671H111.668V112.137H110.204ZM110.204 118.937V112.949H111.668V118.937H110.204Z" fill="black"/>
<path d="M112.825 115.859C112.825 115.332 112.945 114.823 113.185 114.331C113.425 113.838 113.764 113.462 114.204 113.203C114.643 112.944 115.134 112.814 115.676 112.814C116.513 112.814 117.199 113.108 117.734 113.696C118.27 114.285 118.537 115.028 118.537 115.926C118.537 116.832 118.267 117.583 117.727 118.179C117.186 118.774 116.506 119.072 115.686 119.072C115.179 119.072 114.695 118.948 114.235 118.7C113.775 118.452 113.425 118.088 113.185 117.609C112.945 117.13 112.825 116.546 112.825 115.859ZM114.326 115.943C114.326 116.537 114.456 116.992 114.717 117.308C114.978 117.623 115.299 117.781 115.681 117.781C116.063 117.781 116.384 117.623 116.643 117.308C116.902 116.992 117.031 116.533 117.031 115.932C117.031 115.346 116.902 114.894 116.643 114.579C116.384 114.263 116.063 114.105 115.681 114.105C115.299 114.105 114.978 114.263 114.717 114.579C114.456 114.894 114.326 115.349 114.326 115.943Z" fill="black"/>
<path d="M124.723 118.937H123.259V115.881C123.259 115.235 123.227 114.816 123.165 114.627C123.102 114.437 123.001 114.289 122.86 114.184C122.719 114.079 122.55 114.026 122.352 114.026C122.098 114.026 121.871 114.101 121.669 114.252C121.468 114.402 121.329 114.601 121.255 114.849C121.18 115.097 121.143 115.556 121.143 116.225V118.937H119.678V112.949H121.038V113.829C121.521 113.152 122.129 112.814 122.862 112.814C123.186 112.814 123.481 112.877 123.748 113.003C124.016 113.129 124.218 113.289 124.356 113.485C124.493 113.68 124.588 113.902 124.642 114.15C124.696 114.398 124.723 114.754 124.723 115.216V118.937Z" fill="black"/>
<path d="M127.308 114.776L125.979 114.517C126.128 113.938 126.385 113.509 126.75 113.231C127.115 112.953 127.657 112.814 128.376 112.814C129.029 112.814 129.516 112.898 129.835 113.065C130.155 113.232 130.38 113.445 130.51 113.702C130.641 113.959 130.706 114.432 130.706 115.12L130.69 116.969C130.69 117.496 130.713 117.884 130.76 118.134C130.807 118.384 130.895 118.651 131.024 118.937H129.575C129.537 118.832 129.49 118.676 129.434 118.469C129.41 118.375 129.392 118.313 129.382 118.283C129.132 118.546 128.864 118.743 128.579 118.875C128.294 119.007 127.99 119.072 127.667 119.072C127.098 119.072 126.648 118.905 126.32 118.571C125.992 118.236 125.828 117.813 125.828 117.302C125.828 116.964 125.902 116.662 126.052 116.397C126.201 116.132 126.41 115.929 126.68 115.788C126.949 115.647 127.337 115.524 127.845 115.419C128.529 115.28 129.003 115.15 129.267 115.03V114.872C129.267 114.567 129.198 114.35 129.059 114.221C128.92 114.091 128.658 114.026 128.272 114.026C128.011 114.026 127.808 114.082 127.662 114.193C127.516 114.303 127.398 114.498 127.308 114.776ZM129.267 116.062C129.08 116.129 128.783 116.21 128.376 116.304C127.97 116.398 127.704 116.49 127.579 116.58C127.388 116.727 127.292 116.913 127.292 117.138C127.292 117.36 127.369 117.552 127.521 117.714C127.674 117.875 127.869 117.956 128.105 117.956C128.369 117.956 128.621 117.862 128.861 117.674C129.038 117.531 129.154 117.356 129.21 117.15C129.248 117.014 129.267 116.757 129.267 116.377V116.062Z" fill="black"/>
<path d="M132.155 118.937V110.671H133.619V118.937H132.155Z" fill="black"/>
<path d="M137.773 114.855C137.773 114.013 137.889 113.306 138.122 112.735C138.296 112.314 138.533 111.936 138.834 111.602C139.134 111.267 139.463 111.019 139.821 110.858C140.297 110.64 140.846 110.531 141.468 110.531C142.594 110.531 143.494 110.908 144.17 111.664C144.846 112.419 145.184 113.47 145.184 114.816C145.184 116.15 144.849 117.194 144.178 117.948C143.507 118.701 142.611 119.078 141.489 119.078C140.353 119.078 139.449 118.703 138.779 117.953C138.108 117.203 137.773 116.171 137.773 114.855ZM139.362 114.799C139.362 115.735 139.562 116.444 139.962 116.927C140.361 117.41 140.869 117.652 141.484 117.652C142.099 117.652 142.603 117.412 142.998 116.933C143.392 116.453 143.589 115.735 143.589 114.776C143.589 113.829 143.397 113.122 143.013 112.656C142.629 112.19 142.119 111.957 141.484 111.957C140.848 111.957 140.335 112.193 139.946 112.665C139.557 113.136 139.362 113.848 139.362 114.799Z" fill="black"/>
<path d="M146.33 112.949H147.696V113.829C147.873 113.528 148.112 113.284 148.415 113.096C148.717 112.908 149.052 112.814 149.421 112.814C150.063 112.814 150.609 113.087 151.057 113.632C151.505 114.177 151.729 114.936 151.729 115.909C151.729 116.909 151.503 117.686 151.052 118.241C150.6 118.795 150.053 119.072 149.41 119.072C149.104 119.072 148.827 119.007 148.579 118.875C148.33 118.743 148.069 118.518 147.795 118.198V121.215H146.33V112.949ZM147.779 115.842C147.779 116.515 147.902 117.012 148.149 117.333C148.396 117.654 148.696 117.815 149.051 117.815C149.391 117.815 149.674 117.667 149.9 117.372C150.126 117.077 150.239 116.593 150.239 115.921C150.239 115.293 150.122 114.827 149.89 114.522C149.657 114.218 149.368 114.066 149.024 114.066C148.667 114.066 148.37 114.215 148.133 114.514C147.897 114.813 147.779 115.255 147.779 115.842Z" fill="black"/>
<path d="M152.855 112.949H154.221V113.829C154.398 113.528 154.638 113.284 154.94 113.096C155.242 112.908 155.578 112.814 155.946 112.814C156.589 112.814 157.134 113.087 157.582 113.632C158.031 114.177 158.255 114.936 158.255 115.909C158.255 116.909 158.029 117.686 157.577 118.241C157.125 118.795 156.578 119.072 155.936 119.072C155.63 119.072 155.353 119.007 155.104 118.875C154.856 118.743 154.594 118.518 154.32 118.198V121.215H152.855V112.949ZM154.304 115.842C154.304 116.515 154.428 117.012 154.674 117.333C154.921 117.654 155.222 117.815 155.576 117.815C155.916 117.815 156.2 117.667 156.425 117.372C156.651 117.077 156.764 116.593 156.764 115.921C156.764 115.293 156.648 114.827 156.415 114.522C156.182 114.218 155.894 114.066 155.55 114.066C155.192 114.066 154.895 114.215 154.659 114.514C154.422 114.813 154.304 115.255 154.304 115.842Z" fill="black"/>
<path d="M159.083 115.859C159.083 115.332 159.202 114.823 159.442 114.331C159.682 113.838 160.021 113.462 160.461 113.203C160.9 112.944 161.391 112.814 161.933 112.814C162.771 112.814 163.457 113.108 163.992 113.696C164.527 114.285 164.794 115.028 164.794 115.926C164.794 116.832 164.524 117.583 163.984 118.179C163.444 118.774 162.764 119.072 161.944 119.072C161.436 119.072 160.953 118.948 160.492 118.7C160.032 118.452 159.682 118.088 159.442 117.609C159.202 117.13 159.083 116.546 159.083 115.859ZM160.583 115.943C160.583 116.537 160.714 116.992 160.974 117.308C161.235 117.623 161.556 117.781 161.938 117.781C162.321 117.781 162.641 117.623 162.9 117.308C163.159 116.992 163.288 116.533 163.288 115.932C163.288 115.346 163.159 114.894 162.9 114.579C162.641 114.263 162.321 114.105 161.938 114.105C161.556 114.105 161.235 114.263 160.974 114.579C160.714 114.894 160.583 115.349 160.583 115.943Z" fill="black"/>
<path d="M167.348 118.937H165.884V112.949H167.244V113.801C167.477 113.398 167.686 113.133 167.872 113.006C168.058 112.878 168.269 112.814 168.505 112.814C168.839 112.814 169.16 112.914 169.469 113.113L169.016 114.494C168.769 114.321 168.54 114.235 168.328 114.235C168.123 114.235 167.949 114.296 167.807 114.418C167.664 114.54 167.552 114.761 167.471 115.081C167.389 115.4 167.348 116.069 167.348 117.088V118.937Z" fill="black"/>
<path d="M172.633 112.949V114.212H171.632V116.625C171.632 117.114 171.642 117.399 171.661 117.48C171.68 117.56 171.723 117.627 171.791 117.68C171.859 117.732 171.941 117.759 172.039 117.759C172.174 117.759 172.37 117.708 172.628 117.606L172.753 118.836C172.412 118.993 172.027 119.072 171.596 119.072C171.332 119.072 171.094 119.024 170.882 118.929C170.67 118.833 170.514 118.709 170.415 118.556C170.316 118.404 170.248 118.198 170.209 117.939C170.178 117.755 170.163 117.383 170.163 116.823V114.212H169.49V112.949H170.163V111.76L171.632 110.835V112.949H172.633Z" fill="black"/>
<path d="M177.303 118.937V118.041C177.101 118.36 176.836 118.612 176.508 118.796C176.179 118.98 175.833 119.072 175.468 119.072C175.096 119.072 174.763 118.984 174.467 118.807C174.172 118.631 173.958 118.383 173.826 118.063C173.694 117.744 173.628 117.302 173.628 116.738V112.949H175.093V115.701C175.093 116.543 175.12 117.059 175.174 117.248C175.227 117.438 175.326 117.589 175.468 117.699C175.611 117.81 175.791 117.866 176.01 117.866C176.26 117.866 176.484 117.792 176.682 117.643C176.88 117.495 177.016 117.31 177.089 117.091C177.162 116.871 177.198 116.332 177.198 115.475V112.949H178.663V118.937H177.303Z" fill="black"/>
<path d="M185.219 118.937H183.754V115.881C183.754 115.235 183.723 114.816 183.66 114.627C183.598 114.437 183.496 114.289 183.355 114.184C183.215 114.079 183.045 114.026 182.847 114.026C182.594 114.026 182.366 114.101 182.165 114.252C181.963 114.402 181.825 114.601 181.75 114.849C181.676 115.097 181.638 115.556 181.638 116.225V118.937H180.174V112.949H181.534V113.829C182.017 113.152 182.625 112.814 183.358 112.814C183.681 112.814 183.977 112.877 184.244 113.003C184.512 113.129 184.714 113.289 184.851 113.485C184.988 113.68 185.084 113.902 185.138 114.15C185.192 114.398 185.219 114.754 185.219 115.216V118.937Z" fill="black"/>
<path d="M186.709 112.137V110.671H188.174V112.137H186.709ZM186.709 118.937V112.949H188.174V118.937H186.709Z" fill="black"/>
<path d="M192.208 112.949V114.212H191.207V116.625C191.207 117.114 191.216 117.399 191.236 117.48C191.255 117.56 191.298 117.627 191.366 117.68C191.434 117.732 191.516 117.759 191.613 117.759C191.749 117.759 191.945 117.708 192.202 117.606L192.327 118.836C191.987 118.993 191.601 119.072 191.17 119.072C190.906 119.072 190.668 119.024 190.456 118.929C190.244 118.833 190.089 118.709 189.99 118.556C189.891 118.404 189.822 118.198 189.784 117.939C189.753 117.755 189.737 117.383 189.737 116.823V114.212H189.065V112.949H189.737V111.76L191.207 110.835V112.949H192.208Z" fill="black"/>
<path d="M192.541 112.949H194.099L195.423 117.2L196.715 112.949H198.232L196.278 118.711L195.929 119.755C195.8 120.104 195.677 120.371 195.561 120.555C195.445 120.739 195.311 120.889 195.16 121.003C195.009 121.118 194.823 121.207 194.602 121.271C194.382 121.335 194.132 121.367 193.854 121.367C193.573 121.367 193.297 121.335 193.026 121.271L192.895 120.031C193.125 120.08 193.331 120.104 193.516 120.104C193.856 120.104 194.108 119.996 194.271 119.78C194.435 119.564 194.56 119.288 194.646 118.954L192.541 112.949Z" fill="black"/>
<path d="M178.267 105.319C168.685 105.382 165.435 104.025 161.297 100.804C157.16 97.5831 155.236 92.4496 154.891 85.9101H167.982C168.563 92.6404 172.296 95.256 178.555 95.2181C183.422 95.2034 187.79 94.0513 187.275 89.1588C186.936 84.0653 179.206 84.9013 169.174 80.6547C162.145 78.5627 155.414 72.9812 155.996 64.2709C156.881 52.4312 167.525 48.0443 177.517 48C189.439 47.9905 198.546 53.8326 198.707 66.0532L185.821 65.8741C185.762 58.6679 177.786 58.6449 176.801 58.6316C171.618 58.4619 169.054 61.2668 169.178 63.5106C169.228 67.7781 174.471 68.9342 179.599 70.5749C189.233 73.6342 200.538 75.4595 200.6 88.3594C200.501 93.5003 199.084 97.2988 194.783 100.743C191.463 103.337 185.822 105.28 178.267 105.319Z" fill="#C7002B"/>
<path d="M12.123 50.3344H26.091V104.467H12.123V50.3344Z" fill="#C7002B"/>
<path d="M32.0005 50.3344H73.7254V61.3509H45.5691V71.4922H73.7254V82.2368H45.5691V93.3396H73.7254V104.467H32.0005V50.3344Z" fill="#C7002B"/>
<path d="M79.0981 50.3344H92.8871V92.8382H118.316V104.467H79.0981V50.3344Z" fill="#C7002B"/>
<path d="M108.186 50.3344H153.138V61.3509H137.563V104.467H123.824V61.3509H108.186V50.3344Z" fill="#C7002B"/>
<path d="M197.355 56.6288V51.2598H195.534V50.1667H200.41V51.2598H198.594V56.6288H197.355Z" fill="black"/>
<path d="M201.197 56.6288V50.1667H203.051L204.164 54.5747L205.265 50.1667H207.123V56.6288H205.972V51.542L204.754 56.6288H203.561L202.348 51.542V56.6288H201.197Z" fill="black"/>
</g>
<path d="M15.525 184.49V197H13.473V184.49H15.525ZM20.2711 186.146V189.818H24.5911V191.492H20.2711V195.326H25.1311V197H18.2191V184.472H25.1311V186.146H20.2711ZM29.7106 195.344H33.9406V197H27.6586V184.49H29.7106V195.344ZM43.7386 184.49V186.164H40.4086V197H38.3566V186.164H35.0086V184.49H43.7386ZM49.9388 197.126C49.0988 197.126 48.3428 196.982 47.6708 196.694C46.9988 196.394 46.4708 195.974 46.0868 195.434C45.7028 194.894 45.5108 194.264 45.5108 193.544H47.7068C47.7548 194.084 47.9648 194.528 48.3368 194.876C48.7208 195.224 49.2548 195.398 49.9388 195.398C50.6468 195.398 51.1988 195.23 51.5948 194.894C51.9908 194.546 52.1888 194.102 52.1888 193.562C52.1888 193.142 52.0628 192.8 51.8108 192.536C51.5708 192.272 51.2648 192.068 50.8928 191.924C50.5328 191.78 50.0288 191.624 49.3808 191.456C48.5648 191.24 47.8988 191.024 47.3828 190.808C46.8788 190.58 46.4468 190.232 46.0868 189.764C45.7268 189.296 45.5468 188.672 45.5468 187.892C45.5468 187.172 45.7268 186.542 46.0868 186.002C46.4468 185.462 46.9508 185.048 47.5988 184.76C48.2468 184.472 48.9968 184.328 49.8488 184.328C51.0608 184.328 52.0508 184.634 52.8188 185.246C53.5988 185.846 54.0308 186.674 54.1148 187.73H51.8468C51.8108 187.274 51.5948 186.884 51.1988 186.56C50.8028 186.236 50.2808 186.074 49.6328 186.074C49.0448 186.074 48.5648 186.224 48.1928 186.524C47.8208 186.824 47.6348 187.256 47.6348 187.82C47.6348 188.204 47.7488 188.522 47.9768 188.774C48.2168 189.014 48.5168 189.206 48.8768 189.35C49.2368 189.494 49.7288 189.65 50.3528 189.818C51.1808 190.046 51.8528 190.274 52.3688 190.502C52.8968 190.73 53.3408 191.084 53.7008 191.564C54.0728 192.032 54.2588 192.662 54.2588 193.454C54.2588 194.09 54.0848 194.69 53.7368 195.254C53.4008 195.818 52.9028 196.274 52.2428 196.622C51.5948 196.958 50.8268 197.126 49.9388 197.126ZM70.1039 188.216C70.1039 188.852 69.9539 189.452 69.6539 190.016C69.3539 190.58 68.8739 191.042 68.2139 191.402C67.5539 191.75 66.7079 191.924 65.6759 191.924H63.4079V197H61.3559V184.49H65.6759C66.6359 184.49 67.4459 184.658 68.1059 184.994C68.7779 185.318 69.2759 185.762 69.5999 186.326C69.9359 186.89 70.1039 187.52 70.1039 188.216ZM65.6759 190.25C66.4559 190.25 67.0379 190.076 67.4219 189.728C67.8059 189.368 67.9979 188.864 67.9979 188.216C67.9979 186.848 67.2239 186.164 65.6759 186.164H63.4079V190.25H65.6759ZM74.1129 188.522C74.4129 188.018 74.8089 187.628 75.3009 187.352C75.8049 187.064 76.3989 186.92 77.0829 186.92V189.044H76.5609C75.7569 189.044 75.1449 189.248 74.7249 189.656C74.3169 190.064 74.1129 190.772 74.1129 191.78V197H72.0609V187.082H74.1129V188.522ZM88.0591 191.798C88.0591 192.17 88.0351 192.506 87.9871 192.806H80.4091C80.4691 193.598 80.7631 194.234 81.2911 194.714C81.8191 195.194 82.4671 195.434 83.2351 195.434C84.3391 195.434 85.1191 194.972 85.5751 194.048H87.7891C87.4891 194.96 86.9431 195.71 86.1511 196.298C85.3711 196.874 84.3991 197.162 83.2351 197.162C82.2871 197.162 81.4351 196.952 80.6791 196.532C79.9351 196.1 79.3471 195.5 78.9151 194.732C78.4951 193.952 78.2851 193.052 78.2851 192.032C78.2851 191.012 78.4891 190.118 78.8971 189.35C79.3171 188.57 79.8991 187.97 80.6431 187.55C81.3991 187.13 82.2631 186.92 83.2351 186.92C84.1711 186.92 85.0051 187.124 85.7371 187.532C86.4691 187.94 87.0391 188.516 87.4471 189.26C87.8551 189.992 88.0591 190.838 88.0591 191.798ZM85.9171 191.15C85.9051 190.394 85.6351 189.788 85.1071 189.332C84.5791 188.876 83.9251 188.648 83.1451 188.648C82.4371 188.648 81.8311 188.876 81.3271 189.332C80.8231 189.776 80.5231 190.382 80.4271 191.15H85.9171ZM92.1305 188.54C92.4785 188.084 92.9525 187.7 93.5525 187.388C94.1525 187.076 94.8305 186.92 95.5865 186.92C96.4505 186.92 97.2365 187.136 97.9445 187.568C98.6645 187.988 99.2285 188.582 99.6365 189.35C100.045 190.118 100.249 191 100.249 191.996C100.249 192.992 100.045 193.886 99.6365 194.678C99.2285 195.458 98.6645 196.07 97.9445 196.514C97.2365 196.946 96.4505 197.162 95.5865 197.162C94.8305 197.162 94.1585 197.012 93.5705 196.712C92.9825 196.4 92.5025 196.016 92.1305 195.56V201.716H90.0785V187.082H92.1305V188.54ZM98.1605 191.996C98.1605 191.312 98.0165 190.724 97.7285 190.232C97.4525 189.728 97.0805 189.35 96.6125 189.098C96.1565 188.834 95.6645 188.702 95.1365 188.702C94.6205 188.702 94.1285 188.834 93.6605 189.098C93.2045 189.362 92.8325 189.746 92.5445 190.25C92.2685 190.754 92.1305 191.348 92.1305 192.032C92.1305 192.716 92.2685 193.316 92.5445 193.832C92.8325 194.336 93.2045 194.72 93.6605 194.984C94.1285 195.248 94.6205 195.38 95.1365 195.38C95.6645 195.38 96.1565 195.248 96.6125 194.984C97.0805 194.708 97.4525 194.312 97.7285 193.796C98.0165 193.28 98.1605 192.68 98.1605 191.996ZM101.594 191.996C101.594 191 101.798 190.118 102.206 189.35C102.626 188.582 103.19 187.988 103.898 187.568C104.618 187.136 105.41 186.92 106.274 186.92C107.054 186.92 107.732 187.076 108.308 187.388C108.896 187.688 109.364 188.066 109.712 188.522V187.082H111.782V197H109.712V195.524C109.364 195.992 108.89 196.382 108.29 196.694C107.69 197.006 107.006 197.162 106.238 197.162C105.386 197.162 104.606 196.946 103.898 196.514C103.19 196.07 102.626 195.458 102.206 194.678C101.798 193.886 101.594 192.992 101.594 191.996ZM109.712 192.032C109.712 191.348 109.568 190.754 109.28 190.25C109.004 189.746 108.638 189.362 108.182 189.098C107.726 188.834 107.234 188.702 106.706 188.702C106.178 188.702 105.686 188.834 105.23 189.098C104.774 189.35 104.402 189.728 104.114 190.232C103.838 190.724 103.7 191.312 103.7 191.996C103.7 192.68 103.838 193.28 104.114 193.796C104.402 194.312 104.774 194.708 105.23 194.984C105.698 195.248 106.19 195.38 106.706 195.38C107.234 195.38 107.726 195.248 108.182 194.984C108.638 194.72 109.004 194.336 109.28 193.832C109.568 193.316 109.712 192.716 109.712 192.032ZM116.529 188.522C116.829 188.018 117.225 187.628 117.717 187.352C118.221 187.064 118.815 186.92 119.499 186.92V189.044H118.977C118.173 189.044 117.561 189.248 117.141 189.656C116.733 190.064 116.529 190.772 116.529 191.78V197H114.477V187.082H116.529V188.522ZM120.701 191.996C120.701 191 120.905 190.118 121.313 189.35C121.733 188.582 122.297 187.988 123.005 187.568C123.725 187.136 124.517 186.92 125.381 186.92C126.161 186.92 126.839 187.076 127.415 187.388C128.003 187.688 128.471 188.066 128.819 188.522V187.082H130.889V197H128.819V195.524C128.471 195.992 127.997 196.382 127.397 196.694C126.797 197.006 126.113 197.162 125.345 197.162C124.493 197.162 123.713 196.946 123.005 196.514C122.297 196.07 121.733 195.458 121.313 194.678C120.905 193.886 120.701 192.992 120.701 191.996ZM128.819 192.032C128.819 191.348 128.675 190.754 128.387 190.25C128.111 189.746 127.745 189.362 127.289 189.098C126.833 188.834 126.341 188.702 125.813 188.702C125.285 188.702 124.793 188.834 124.337 189.098C123.881 189.35 123.509 189.728 123.221 190.232C122.945 190.724 122.807 191.312 122.807 191.996C122.807 192.68 122.945 193.28 123.221 193.796C123.509 194.312 123.881 194.708 124.337 194.984C124.805 195.248 125.297 195.38 125.813 195.38C126.341 195.38 126.833 195.248 127.289 194.984C127.745 194.72 128.111 194.336 128.387 193.832C128.675 193.316 128.819 192.716 128.819 192.032ZM135.978 188.756V194.246C135.978 194.618 136.062 194.888 136.23 195.056C136.41 195.212 136.71 195.29 137.13 195.29H138.39V197H136.77C135.846 197 135.138 196.784 134.646 196.352C134.154 195.92 133.908 195.218 133.908 194.246V188.756H132.738V187.082H133.908V184.616H135.978V187.082H138.39V188.756H135.978ZM141.326 185.768C140.954 185.768 140.642 185.642 140.39 185.39C140.138 185.138 140.012 184.826 140.012 184.454C140.012 184.082 140.138 183.77 140.39 183.518C140.642 183.266 140.954 183.14 141.326 183.14C141.686 183.14 141.992 183.266 142.244 183.518C142.496 183.77 142.622 184.082 142.622 184.454C142.622 184.826 142.496 185.138 142.244 185.39C141.992 185.642 141.686 185.768 141.326 185.768ZM142.334 187.082V197H140.282V187.082H142.334ZM149.33 197.162C148.394 197.162 147.548 196.952 146.792 196.532C146.036 196.1 145.442 195.5 145.01 194.732C144.578 193.952 144.362 193.052 144.362 192.032C144.362 191.024 144.584 190.13 145.028 189.35C145.472 188.57 146.078 187.97 146.846 187.55C147.614 187.13 148.472 186.92 149.42 186.92C150.368 186.92 151.226 187.13 151.994 187.55C152.762 187.97 153.368 188.57 153.812 189.35C154.256 190.13 154.478 191.024 154.478 192.032C154.478 193.04 154.25 193.934 153.794 194.714C153.338 195.494 152.714 196.1 151.922 196.532C151.142 196.952 150.278 197.162 149.33 197.162ZM149.33 195.38C149.858 195.38 150.35 195.254 150.806 195.002C151.274 194.75 151.652 194.372 151.94 193.868C152.228 193.364 152.372 192.752 152.372 192.032C152.372 191.312 152.234 190.706 151.958 190.214C151.682 189.71 151.316 189.332 150.86 189.08C150.404 188.828 149.912 188.702 149.384 188.702C148.856 188.702 148.364 188.828 147.908 189.08C147.464 189.332 147.11 189.71 146.846 190.214C146.582 190.706 146.45 191.312 146.45 192.032C146.45 193.1 146.72 193.928 147.26 194.516C147.812 195.092 148.502 195.38 149.33 195.38ZM161.51 186.92C162.29 186.92 162.986 187.082 163.598 187.406C164.222 187.73 164.708 188.21 165.056 188.846C165.404 189.482 165.578 190.25 165.578 191.15V197H163.544V191.456C163.544 190.568 163.322 189.89 162.878 189.422C162.434 188.942 161.828 188.702 161.06 188.702C160.292 188.702 159.68 188.942 159.224 189.422C158.78 189.89 158.558 190.568 158.558 191.456V197H156.506V187.082H158.558V188.216C158.894 187.808 159.32 187.49 159.836 187.262C160.364 187.034 160.922 186.92 161.51 186.92Z" fill="black"/>
<defs>
<clipPath id="clip0_155_38865">
<rect width="195" height="73.3671" fill="white" transform="translate(12.123 48)"/>
</clipPath>
</defs>
</svg>
