<svg width="221" height="217" viewBox="0 0 221 217" fill="none" xmlns="http://www.w3.org/2000/svg">
<rect x="0.623047" y="0.5" width="219" height="216" rx="7.5" stroke="black" stroke-opacity="0.8"/>
<path d="M92.8289 133.77C92.2449 134.581 90.3391 136.998 87.9681 136.998C84.7616 136.998 84.089 134.748 84.089 132.86C84.089 129.756 86.4655 128.32 92.8289 126.749V133.77ZM100.751 137.573C100.658 137.332 100.408 137.195 100.162 137.253L100.084 137.273C99.3528 137.432 98.7908 137.387 98.3966 137.121C97.8377 136.742 97.5655 135.889 97.5655 134.513V122.069C97.5655 117.208 94.6673 114.744 88.9497 114.744C83.8287 114.744 79.8167 117.168 79.8167 120.262C79.8167 121.853 80.7858 123.002 82.2179 123.175C83.1533 123.288 84.0452 122.864 84.6935 122.181C85.9524 120.852 85.7891 119.273 84.2628 117.576C85.1655 116.631 86.7644 116.072 88.5879 116.072C91.5605 116.072 92.8289 117.835 92.8289 121.966V125.111C92.1319 125.326 91.4799 125.53 90.2873 125.81C87.8805 126.375 84.5795 127.127 82.0893 128.503C80.0336 129.629 78.9912 131.408 78.9912 133.791C78.9912 136.384 80.693 139.411 85.4898 139.411C88.1756 139.411 90.5827 138.137 93.0527 135.404C93.2654 138.244 94.3419 139.309 96.9527 139.309C98.2082 139.309 99.2127 139.016 100.407 138.438C100.73 138.281 100.884 137.906 100.751 137.573Z" fill="#2F2A28"/>
<path d="M154.038 115.917C151.101 115.917 147.731 117.18 147.731 127.026C147.731 134.536 149.946 138.186 154.502 138.186C158.863 138.186 160.808 134.744 160.808 127.026C160.808 119.551 158.594 115.917 154.038 115.917ZM154.295 139.515C147.499 139.515 142.375 134.191 142.375 127.129C142.375 120.214 147.722 114.589 154.295 114.589C160.951 114.589 166.165 120.006 166.165 126.923C166.165 134.701 160.004 139.515 154.295 139.515Z" fill="#2F2A28"/>
<path d="M36.7813 134.513V125.511H40.2475C45.4193 125.511 49.3537 124.416 51.9419 122.257C54.6472 120 55.2148 117.141 55.2148 115.139C55.2148 106.907 47.2723 105.18 40.609 105.18L40.6357 105.179H27.121C26.815 105.179 26.5662 105.428 26.5662 105.734V105.771L26.5659 105.759C26.5659 106.042 26.7382 106.293 27.0036 106.391C28.2069 106.833 31.477 106.21 31.477 109.717L31.4774 134.509C31.4774 136.312 30.6776 137.584 27.022 137.929C26.7325 137.957 26.5132 138.195 26.5132 138.481V138.566C26.5132 138.872 26.7622 139.121 27.068 139.121H41.5068C41.8127 139.121 42.0616 138.872 42.0616 138.566V138.49C42.0616 138.204 41.8342 137.961 41.5447 137.938C37.5738 137.621 36.7764 136.391 36.7764 134.509V125.527M49.239 115.036C49.239 120.763 47.8271 123.919 40.609 123.919H36.7813V106.612H40.764C48.2317 106.612 49.239 110.87 49.239 115.036Z" fill="#2F2A28"/>
<path d="M60.0801 123.936C60.6067 118.776 62.6207 115.947 65.7834 115.947C67.3663 115.947 68.5398 116.385 69.3695 117.287C70.5096 118.525 70.991 120.762 70.8016 123.936H60.0801ZM66.1439 114.576C59.8587 114.576 54.7456 120.267 54.7456 127.262C54.7456 134.344 59.5393 139.483 66.1439 139.483C71.6939 139.483 74.394 136.167 75.9421 133.673C76.0947 133.428 76.028 133.103 75.7906 132.933L75.7172 132.881C75.4781 132.711 75.1448 132.758 74.9602 132.991C72.9191 135.549 71.1335 137.03 68.049 137.03C64.1476 137.03 59.9793 134.342 59.9793 126.798V126.743C59.973 126.409 59.981 125.952 59.9929 125.527H75.9543C75.9984 125.527 76.0339 125.492 76.0374 125.449L76.0464 125.321C76.2717 122.227 75.3964 119.448 73.5823 117.495C71.8068 115.586 69.2343 114.576 66.1439 114.576Z" fill="#2F2A28"/>
<path d="M132.303 124.215C132.301 124.215 132.299 124.215 132.298 124.214C127.933 122.99 126.232 121.751 126.232 119.795C126.232 117.565 128.001 115.947 130.439 115.947C133.307 115.947 134.535 117.318 137.562 122.379L137.602 122.447C137.617 122.472 137.645 122.488 137.674 122.488H138.089C138.395 122.488 138.644 122.239 138.644 121.933V114.66C138.644 114.614 138.606 114.576 138.561 114.576H138.013C137.846 114.576 137.69 114.651 137.584 114.779L136.618 115.956C135.398 115.283 133.412 114.576 131.418 114.576C126.405 114.576 122.904 117.675 122.904 122.112C122.904 126.276 125.665 127.836 130.432 129.124C135.065 130.392 136.706 131.711 136.706 134.163C136.706 136.887 134.066 138.112 132.191 138.112C128.703 138.112 127.228 136.816 123.886 130.811L123.847 130.739C123.832 130.713 123.804 130.696 123.774 130.696H123.356C123.05 130.696 122.801 130.945 122.801 131.251V139.4C122.801 139.446 122.838 139.483 122.884 139.483H123.451C123.597 139.483 123.741 139.424 123.844 139.321L125.372 137.792C127.161 138.902 129.835 139.483 131.572 139.483C134.18 139.483 136.324 138.657 137.773 137.094C139.064 135.701 139.776 133.728 139.776 131.536C139.776 127.741 137.75 125.757 132.303 124.215Z" fill="#2F2A28"/>
<path d="M105.889 136.196C105.889 137.452 105.57 137.863 103.571 137.989C103.28 138.008 103.052 138.25 103.052 138.542C103.052 138.847 103.301 139.095 103.606 139.095H113.484C113.785 139.095 114.029 138.851 114.029 138.551C114.029 138.255 113.798 138.012 113.503 137.998C111.217 137.888 110.626 137.517 110.626 136.195V121.711C112.251 119.007 113.42 117.592 115.392 117.165C115.297 117.506 115.234 117.916 115.234 118.248C115.234 120.008 116.464 121.236 118.223 121.236C119.951 121.236 121.159 120.008 121.159 118.248C121.159 116.584 120.12 114.64 117.19 114.64C114.788 114.64 112.493 116.017 110.523 119.311V115.586C110.523 115.206 110.21 114.901 109.83 114.911L103.606 115.077C103.305 115.086 103.069 115.328 103.069 115.629V115.71C103.069 115.983 103.267 116.217 103.53 116.254C105.605 116.548 105.891 117.535 105.889 118.558L105.889 136.196Z" fill="#2F2A28"/>
<path d="M174.203 114.894C174.347 114.894 174.483 114.949 174.587 115.05C174.695 115.154 174.755 115.295 174.756 115.446L174.779 119.577C174.779 119.577 176.805 114.731 183.385 114.731H183.443C187.544 114.731 189.896 117.347 189.896 121.906V136.171C189.896 137.428 190.216 137.84 192.214 137.966C192.505 137.983 192.733 138.226 192.733 138.518C192.733 138.823 192.484 139.071 192.179 139.071H183.306C183 139.071 182.75 138.822 182.75 138.517C182.75 138.22 182.973 137.978 183.256 137.954C184.869 137.817 185.126 137.409 185.126 136.171V123.296C185.126 119.046 183.918 117.39 180.816 117.39C178.72 117.39 177.003 119.22 175.932 120.755C175.932 120.755 175.385 121.441 174.792 122.731L174.858 136.171C174.858 137.406 175.108 137.813 176.674 137.953C176.957 137.977 177.179 138.219 177.179 138.504C177.179 138.822 176.93 139.071 176.625 139.071H167.806C167.5 139.071 167.252 138.823 167.252 138.517C167.252 138.226 167.48 137.983 167.77 137.965C169.769 137.839 170.089 137.427 170.089 136.171V118.561C170.089 117.533 169.801 116.541 167.716 116.245C167.451 116.208 167.252 115.973 167.252 115.698V115.617C167.252 115.314 167.489 115.071 167.792 115.062L174.203 114.894Z" fill="#2F2A28"/>
<path d="M128.376 27.1562C144.017 36.067 147.658 56.0498 136.775 76.2664C127.211 94.0382 106.327 101.628 90.7659 92.5803C75.2014 83.5308 72.1638 58.2869 78.8525 43.7599C88.5642 22.6659 111.095 17.3078 128.376 27.1562Z" fill="#0F86AC"/>
<path d="M108.24 79.8102C107.764 79.439 107.229 79.1842 106.69 79.0761C106.507 79.0406 106.318 79.0205 106.132 79.0205C105.115 79.0205 104.118 79.5801 103.465 80.521C102.92 81.3021 102.697 82.2353 102.842 83.1415C102.934 83.7178 103.15 84.2191 103.469 84.5927C103.827 85.015 104.376 85.3373 105.055 85.5312C105.449 85.64 105.852 85.6981 106.255 85.6981H106.256C107.133 85.6981 107.923 85.4349 108.537 84.9368C109.25 84.356 109.639 83.527 109.63 82.6041C109.622 81.5273 109.102 80.4814 108.24 79.8102ZM128.013 42.4882C131.074 45.7569 132.028 50.7171 131.495 54.7853C130.887 59.4242 128.076 63.7167 123.399 66.5627C119.69 68.8197 114.818 69.7203 110.023 69.763C109.985 70.5232 109.833 73.1416 109.757 73.556C109.644 74.1667 109.43 74.4962 109.169 74.8382C108.654 75.5091 107.76 75.9425 106.873 76.1952C106.168 76.3958 105.471 76.482 104.976 76.482C104.892 76.482 104.811 76.4771 104.731 76.467C104.209 76.408 103.631 76.1632 103.273 75.7639C102.915 75.3645 102.713 74.8594 102.665 74.2873L102.625 73.7704C102.524 73.3252 101.968 50.7841 102.076 51.1849C102.157 48.4845 106.517 48.0131 108.883 48.49C111.254 48.968 110.654 51.8485 110.59 55.3897C110.59 55.3897 110.477 60.0464 110.259 64.967C113.277 64.8488 115.675 63.9885 117.919 62.8734C122.452 60.6266 124.851 57.1802 124.851 52.1039C124.851 47.0274 119.909 41.3428 110.792 41.3428C101.676 41.3428 97.7633 43.6422 93.3492 47.294C92.3541 48.1174 91.5876 48.9471 90.8626 49.4932C90.1378 50.0392 88.2129 50.123 87.6967 48.8449C87.0748 47.304 88.2368 45.5862 88.9195 44.7551C89.9915 43.4503 92.636 40.8221 95.5665 39.2952C98.9232 37.5426 103.03 35.6559 108.747 35.5116C113.92 35.3809 122.086 35.7998 127.969 42.4444" fill="white"/>
<path d="M22.221 188.216C22.221 188.852 22.071 189.452 21.771 190.016C21.471 190.58 20.991 191.042 20.331 191.402C19.671 191.75 18.825 191.924 17.793 191.924H15.525V197H13.473V184.49H17.793C18.753 184.49 19.563 184.658 20.223 184.994C20.895 185.318 21.393 185.762 21.717 186.326C22.053 186.89 22.221 187.52 22.221 188.216ZM17.793 190.25C18.573 190.25 19.155 190.076 19.539 189.728C19.923 189.368 20.115 188.864 20.115 188.216C20.115 186.848 19.341 186.164 17.793 186.164H15.525V190.25H17.793ZM32.2601 184.49V186.164H28.9301V197H26.8781V186.164H23.5301V184.49H32.2601ZM36.3903 186.146V189.818H40.7103V191.492H36.3903V195.326H41.2503V197H34.3383V184.472H41.2503V186.146H36.3903ZM57.2015 188.216C57.2015 188.852 57.0515 189.452 56.7515 190.016C56.4515 190.58 55.9715 191.042 55.3115 191.402C54.6515 191.75 53.8055 191.924 52.7735 191.924H50.5055V197H48.4535V184.49H52.7735C53.7335 184.49 54.5435 184.658 55.2035 184.994C55.8755 185.318 56.3735 185.762 56.6975 186.326C57.0335 186.89 57.2015 187.52 57.2015 188.216ZM52.7735 190.25C53.5535 190.25 54.1355 190.076 54.5195 189.728C54.9035 189.368 55.0955 188.864 55.0955 188.216C55.0955 186.848 54.3215 186.164 52.7735 186.164H50.5055V190.25H52.7735ZM61.2106 188.522C61.5106 188.018 61.9066 187.628 62.3986 187.352C62.9026 187.064 63.4966 186.92 64.1806 186.92V189.044H63.6586C62.8546 189.044 62.2426 189.248 61.8226 189.656C61.4146 190.064 61.2106 190.772 61.2106 191.78V197H59.1586V187.082H61.2106V188.522ZM75.1568 191.798C75.1568 192.17 75.1328 192.506 75.0848 192.806H67.5068C67.5668 193.598 67.8608 194.234 68.3888 194.714C68.9168 195.194 69.5648 195.434 70.3328 195.434C71.4368 195.434 72.2168 194.972 72.6728 194.048H74.8868C74.5868 194.96 74.0408 195.71 73.2488 196.298C72.4688 196.874 71.4968 197.162 70.3328 197.162C69.3848 197.162 68.5328 196.952 67.7768 196.532C67.0328 196.1 66.4448 195.5 66.0128 194.732C65.5928 193.952 65.3828 193.052 65.3828 192.032C65.3828 191.012 65.5868 190.118 65.9948 189.35C66.4148 188.57 66.9968 187.97 67.7408 187.55C68.4968 187.13 69.3608 186.92 70.3328 186.92C71.2688 186.92 72.1028 187.124 72.8348 187.532C73.5668 187.94 74.1368 188.516 74.5448 189.26C74.9528 189.992 75.1568 190.838 75.1568 191.798ZM73.0148 191.15C73.0028 190.394 72.7328 189.788 72.2048 189.332C71.6768 188.876 71.0228 188.648 70.2428 188.648C69.5348 188.648 68.9288 188.876 68.4248 189.332C67.9208 189.776 67.6208 190.382 67.5248 191.15H73.0148ZM79.2282 188.54C79.5762 188.084 80.0502 187.7 80.6502 187.388C81.2502 187.076 81.9282 186.92 82.6842 186.92C83.5482 186.92 84.3342 187.136 85.0422 187.568C85.7622 187.988 86.3262 188.582 86.7342 189.35C87.1422 190.118 87.3462 191 87.3462 191.996C87.3462 192.992 87.1422 193.886 86.7342 194.678C86.3262 195.458 85.7622 196.07 85.0422 196.514C84.3342 196.946 83.5482 197.162 82.6842 197.162C81.9282 197.162 81.2562 197.012 80.6682 196.712C80.0802 196.4 79.6002 196.016 79.2282 195.56V201.716H77.1762V187.082H79.2282V188.54ZM85.2582 191.996C85.2582 191.312 85.1142 190.724 84.8262 190.232C84.5502 189.728 84.1782 189.35 83.7102 189.098C83.2542 188.834 82.7622 188.702 82.2342 188.702C81.7182 188.702 81.2262 188.834 80.7582 189.098C80.3022 189.362 79.9302 189.746 79.6422 190.25C79.3662 190.754 79.2282 191.348 79.2282 192.032C79.2282 192.716 79.3662 193.316 79.6422 193.832C79.9302 194.336 80.3022 194.72 80.7582 194.984C81.2262 195.248 81.7182 195.38 82.2342 195.38C82.7622 195.38 83.2542 195.248 83.7102 194.984C84.1782 194.708 84.5502 194.312 84.8262 193.796C85.1142 193.28 85.2582 192.68 85.2582 191.996ZM88.6914 191.996C88.6914 191 88.8954 190.118 89.3034 189.35C89.7234 188.582 90.2874 187.988 90.9954 187.568C91.7154 187.136 92.5074 186.92 93.3714 186.92C94.1514 186.92 94.8294 187.076 95.4054 187.388C95.9934 187.688 96.4614 188.066 96.8094 188.522V187.082H98.8794V197H96.8094V195.524C96.4614 195.992 95.9874 196.382 95.3874 196.694C94.7874 197.006 94.1034 197.162 93.3354 197.162C92.4834 197.162 91.7034 196.946 90.9954 196.514C90.2874 196.07 89.7234 195.458 89.3034 194.678C88.8954 193.886 88.6914 192.992 88.6914 191.996ZM96.8094 192.032C96.8094 191.348 96.6654 190.754 96.3774 190.25C96.1014 189.746 95.7354 189.362 95.2794 189.098C94.8234 188.834 94.3314 188.702 93.8034 188.702C93.2754 188.702 92.7834 188.834 92.3274 189.098C91.8714 189.35 91.4994 189.728 91.2114 190.232C90.9354 190.724 90.7974 191.312 90.7974 191.996C90.7974 192.68 90.9354 193.28 91.2114 193.796C91.4994 194.312 91.8714 194.708 92.3274 194.984C92.7954 195.248 93.2874 195.38 93.8034 195.38C94.3314 195.38 94.8234 195.248 95.2794 194.984C95.7354 194.72 96.1014 194.336 96.3774 193.832C96.6654 193.316 96.8094 192.716 96.8094 192.032ZM103.627 188.522C103.927 188.018 104.323 187.628 104.815 187.352C105.319 187.064 105.913 186.92 106.597 186.92V189.044H106.075C105.271 189.044 104.659 189.248 104.239 189.656C103.831 190.064 103.627 190.772 103.627 191.78V197H101.575V187.082H103.627V188.522ZM107.799 191.996C107.799 191 108.003 190.118 108.411 189.35C108.831 188.582 109.395 187.988 110.103 187.568C110.823 187.136 111.615 186.92 112.479 186.92C113.259 186.92 113.937 187.076 114.513 187.388C115.101 187.688 115.569 188.066 115.917 188.522V187.082H117.987V197H115.917V195.524C115.569 195.992 115.095 196.382 114.495 196.694C113.895 197.006 113.211 197.162 112.443 197.162C111.591 197.162 110.811 196.946 110.103 196.514C109.395 196.07 108.831 195.458 108.411 194.678C108.003 193.886 107.799 192.992 107.799 191.996ZM115.917 192.032C115.917 191.348 115.773 190.754 115.485 190.25C115.209 189.746 114.843 189.362 114.387 189.098C113.931 188.834 113.439 188.702 112.911 188.702C112.383 188.702 111.891 188.834 111.435 189.098C110.979 189.35 110.607 189.728 110.319 190.232C110.043 190.724 109.905 191.312 109.905 191.996C109.905 192.68 110.043 193.28 110.319 193.796C110.607 194.312 110.979 194.708 111.435 194.984C111.903 195.248 112.395 195.38 112.911 195.38C113.439 195.38 113.931 195.248 114.387 194.984C114.843 194.72 115.209 194.336 115.485 193.832C115.773 193.316 115.917 192.716 115.917 192.032ZM123.076 188.756V194.246C123.076 194.618 123.16 194.888 123.328 195.056C123.508 195.212 123.808 195.29 124.228 195.29H125.488V197H123.868C122.944 197 122.236 196.784 121.744 196.352C121.252 195.92 121.006 195.218 121.006 194.246V188.756H119.836V187.082H121.006V184.616H123.076V187.082H125.488V188.756H123.076ZM128.423 185.768C128.051 185.768 127.739 185.642 127.487 185.39C127.235 185.138 127.109 184.826 127.109 184.454C127.109 184.082 127.235 183.77 127.487 183.518C127.739 183.266 128.051 183.14 128.423 183.14C128.783 183.14 129.089 183.266 129.341 183.518C129.593 183.77 129.719 184.082 129.719 184.454C129.719 184.826 129.593 185.138 129.341 185.39C129.089 185.642 128.783 185.768 128.423 185.768ZM129.431 187.082V197H127.379V187.082H129.431ZM136.427 197.162C135.491 197.162 134.645 196.952 133.889 196.532C133.133 196.1 132.539 195.5 132.107 194.732C131.675 193.952 131.459 193.052 131.459 192.032C131.459 191.024 131.681 190.13 132.125 189.35C132.569 188.57 133.175 187.97 133.943 187.55C134.711 187.13 135.569 186.92 136.517 186.92C137.465 186.92 138.323 187.13 139.091 187.55C139.859 187.97 140.465 188.57 140.909 189.35C141.353 190.13 141.575 191.024 141.575 192.032C141.575 193.04 141.347 193.934 140.891 194.714C140.435 195.494 139.811 196.1 139.019 196.532C138.239 196.952 137.375 197.162 136.427 197.162ZM136.427 195.38C136.955 195.38 137.447 195.254 137.903 195.002C138.371 194.75 138.749 194.372 139.037 193.868C139.325 193.364 139.469 192.752 139.469 192.032C139.469 191.312 139.331 190.706 139.055 190.214C138.779 189.71 138.413 189.332 137.957 189.08C137.501 188.828 137.009 188.702 136.481 188.702C135.953 188.702 135.461 188.828 135.005 189.08C134.561 189.332 134.207 189.71 133.943 190.214C133.679 190.706 133.547 191.312 133.547 192.032C133.547 193.1 133.817 193.928 134.357 194.516C134.909 195.092 135.599 195.38 136.427 195.38ZM148.608 186.92C149.388 186.92 150.084 187.082 150.696 187.406C151.32 187.73 151.806 188.21 152.154 188.846C152.502 189.482 152.676 190.25 152.676 191.15V197H150.642V191.456C150.642 190.568 150.42 189.89 149.976 189.422C149.532 188.942 148.926 188.702 148.158 188.702C147.39 188.702 146.778 188.942 146.322 189.422C145.878 189.89 145.656 190.568 145.656 191.456V197H143.604V187.082H145.656V188.216C145.992 187.808 146.418 187.49 146.934 187.262C147.462 187.034 148.02 186.92 148.608 186.92Z" fill="black"/>
</svg>
