<svg width="54" height="54" viewBox="0 0 54 54" fill="none" xmlns="http://www.w3.org/2000/svg">
<path d="M27 18.5C28.1491 18.5 29.2869 18.2737 30.3485 17.8339C31.4101 17.3942 32.3747 16.7497 33.1872 15.9372C33.9997 15.1247 34.6442 14.1601 35.0839 13.0985C35.5237 12.0369 35.75 10.8991 35.75 9.75C35.75 8.60093 35.5237 7.46312 35.0839 6.40152C34.6442 5.33992 33.9997 4.37533 33.1872 3.56282C32.3747 2.7503 31.4101 2.10578 30.3485 1.66605C29.2869 1.22633 28.1491 1 27 1C24.6794 1 22.4538 1.92187 20.8128 3.56282C19.1719 5.20376 18.25 7.42936 18.25 9.75C18.25 12.0706 19.1719 14.2962 20.8128 15.9372C22.4538 17.5781 24.6794 18.5 27 18.5Z" fill="#080808" stroke="#080808" stroke-width="1.66667" stroke-linecap="round" stroke-linejoin="round"/>
<path d="M12 2.56885C10.8416 3.37416 9.89545 4.44801 9.24241 5.69859C8.58937 6.94916 8.24886 8.33928 8.25 9.7501C8.24969 11.2598 8.63998 12.7439 9.38296 14.0581C10.1259 15.3723 11.1963 16.472 12.49 17.2501M42 2.56885C43.1584 3.37416 44.1046 4.44801 44.7576 5.69859C45.4106 6.94916 45.7511 8.33928 45.75 9.7501C45.7513 11.1611 45.4109 12.5515 44.7579 13.8023C44.1048 15.0531 43.1586 16.1272 42 16.9326" stroke="#080808" stroke-width="3" stroke-linecap="round" stroke-linejoin="round"/>
<g filter="url(#filter0_d_297_8814)">
<path d="M12 43.5V46H42V43.5C42 38.8413 42 36.5112 41.2387 34.6725C40.2235 32.2224 38.2766 30.2759 35.8263 29.2612C33.99 28.5 31.66 28.5 27 28.5C22.34 28.5 20.0112 28.5 18.1737 29.2612C16.9603 29.7638 15.8578 30.5005 14.9291 31.4291C14.0005 32.3578 13.2638 33.4603 12.7613 34.6737C12 36.5112 12 38.8413 12 43.5Z" fill="#080808"/>
<path d="M12 43.5V46H42V43.5C42 38.8413 42 36.5112 41.2387 34.6725C40.2235 32.2224 38.2766 30.2759 35.8263 29.2612C33.99 28.5 31.66 28.5 27 28.5C22.34 28.5 20.0112 28.5 18.1737 29.2612C16.9603 29.7638 15.8578 30.5005 14.9291 31.4291C14.0005 32.3578 13.2638 33.4603 12.7613 34.6737C12 36.5112 12 38.8413 12 43.5Z" stroke="#080808" stroke-width="1.66667" stroke-linecap="round" stroke-linejoin="round"/>
</g>
<path d="M52 46.0001V44.5001C52 38.9001 52 36.1001 50.91 33.9601C49.9513 32.0786 48.4215 30.5488 46.54 29.5901M2 46.0001V44.5001C2 38.9001 2 36.1001 3.09 33.9601C4.04872 32.0786 5.57846 30.5488 7.46 29.5901" stroke="#080808" stroke-width="3" stroke-linecap="round" stroke-linejoin="round"/>
<defs>
<filter id="filter0_d_297_8814" x="7.16663" y="27.6667" width="39.6667" height="27.1665" filterUnits="userSpaceOnUse" color-interpolation-filters="sRGB">
<feFlood flood-opacity="0" result="BackgroundImageFix"/>
<feColorMatrix in="SourceAlpha" type="matrix" values="0 0 0 0 0 0 0 0 0 0 0 0 0 0 0 0 0 0 127 0" result="hardAlpha"/>
<feOffset dy="4"/>
<feGaussianBlur stdDeviation="2"/>
<feComposite in2="hardAlpha" operator="out"/>
<feColorMatrix type="matrix" values="0 0 0 0 0 0 0 0 0 0 0 0 0 0 0 0 0 0 0.25 0"/>
<feBlend mode="normal" in2="BackgroundImageFix" result="effect1_dropShadow_297_8814"/>
<feBlend mode="normal" in="SourceGraphic" in2="effect1_dropShadow_297_8814" result="shape"/>
</filter>
</defs>
</svg>
