<svg width="19" height="19" viewBox="0 0 19 19" fill="none" xmlns="http://www.w3.org/2000/svg">
<path d="M16.3173 3.21946C15.4838 2.37779 14.4911 1.71044 13.3971 1.25628C12.303 0.802124 11.1296 0.570252 9.945 0.574176C4.98169 0.574176 0.936492 4.61937 0.936492 9.58269C0.936492 11.1735 1.35465 12.7189 2.13642 14.0824L0.86377 18.7548L5.63619 17.5004C6.95429 18.2185 8.43601 18.6003 9.945 18.6003C14.9083 18.6003 18.9535 14.5551 18.9535 9.59178C18.9535 7.18284 18.0172 4.91935 16.3173 3.21946ZM9.945 17.0731C8.59964 17.0731 7.28154 16.7095 6.12707 16.0277L5.85436 15.8641L3.01818 16.6095L3.77267 13.8461L3.59087 13.5643C2.84323 12.3707 2.44633 10.991 2.44549 9.58269C2.44549 5.45568 5.80891 2.09226 9.93591 2.09226C11.9358 2.09226 13.8175 2.87403 15.2265 4.29212C15.9243 4.9865 16.4772 5.81252 16.8533 6.72226C17.2294 7.63201 17.4211 8.60738 17.4173 9.59178C17.4354 13.7188 14.072 17.0731 9.945 17.0731ZM14.0538 11.4735C13.8266 11.3644 12.7176 10.819 12.5176 10.7372C12.3085 10.6644 12.163 10.6281 12.0085 10.8462C11.854 11.0735 11.4267 11.5826 11.2995 11.728C11.1722 11.8825 11.0358 11.9007 10.8086 11.7825C10.5813 11.6735 9.8541 11.428 8.99961 10.6644C8.32693 10.0645 7.8815 9.32816 7.74515 9.1009C7.61788 8.87364 7.72696 8.75547 7.84514 8.6373C7.94513 8.5373 8.0724 8.37368 8.18148 8.24641C8.29057 8.11915 8.33602 8.01915 8.40874 7.87371C8.48146 7.71917 8.4451 7.59191 8.39056 7.48282C8.33602 7.37374 7.8815 6.26472 7.69969 5.8102C7.51789 5.37387 7.32699 5.42841 7.19064 5.41932H6.7543C6.59976 5.41932 6.36342 5.47386 6.15434 5.70112C5.95435 5.92838 5.37257 6.4738 5.37257 7.58282C5.37257 8.69184 6.18161 9.7645 6.29069 9.90994C6.39978 10.0645 7.8815 12.3371 10.1359 13.3097C10.6722 13.5461 11.0904 13.6824 11.4176 13.7824C11.954 13.9551 12.4448 13.9279 12.8357 13.8733C13.2721 13.8097 14.172 13.3279 14.3538 12.8007C14.5447 12.2734 14.5447 11.828 14.4811 11.728C14.4174 11.628 14.2811 11.5826 14.0538 11.4735Z" fill="black"/>
</svg>
